<?xml version="1.0" encoding="UTF-8"?>
<svg id="Layer_1" data-name="Layer 1" xmlns="http://www.w3.org/2000/svg" viewBox="0 0 300 300">
  <defs>
    <style>
      .cls-1 {
        fill: #ed1a5d;
        fill-rule: evenodd;
      }
    </style>
  </defs>
  <path class="cls-1" d="m270.38,105.38c6.88,6.67,18,6.67,24.46,0,6.88-6.67,6.88-16.73,0-23.4-6.56-6.67-17.57-6.67-24.46,0-6.56,6.67-6.56,16.73,0,23.4Zm-72.41-69.98c6.88,6.67,18,6.67,24.46,0,6.88-6.67,6.88-16.73,0-23.4-6.56-6.67-17.57-6.67-24.46,0-6.46,6.67-6.46,16.62,0,23.4Zm15.99,124.61c6.88,6.67,18,6.67,24.46,0,6.88-6.67,6.88-16.73,0-23.4-6.56-6.67-17.57-6.67-24.46,0-6.56,6.67-6.56,16.73,0,23.4Zm-143.98,30.6l-3.07,12.28c-1.16,4.66-5.82,7.73-10.69,6.67-3.07-.63-6.14-.95-8.89-.95-14.4,0-24.67,9.74-24.67,27v55.26H0v-100.47h22.44v11.33c6.88-9.63,17.47-13.97,30.07-13.97,6.88.11,12.28.95,17.47,2.86Zm63.52,19.8v80.56h-22.76v-80.56h-15.67c-4.66,0-8.47-3.71-8.47-8.15v-11.75h24.14v-23.5c0-20.12,10.48-36.21,34.72-36.21,12.28,0,21.07,3.07,28.9,7.52l-4.66,18.42c-5.29-2.96-15.77-5.4-22.76-5.4-8.79,0-13.55,5.51-13.55,15.56v23.5h35.47v19.9h-35.36v.11Z"/>
</svg>